<svg width="133" height="57" viewBox="0 0 133 57" fill="none" xmlns="http://www.w3.org/2000/svg">
<path d="M128.5 0.86182H3.66113C1.6205 0.86182 0 2.48232 0 4.46293C0 6.4435 1.6205 8.1241 3.66113 8.1241H25.3278C27.3084 8.1241 28.989 9.7446 28.989 11.7852C28.989 13.8258 27.3685 15.4463 25.3278 15.4463H18.8458C16.8652 15.4463 15.1847 17.0668 15.1847 19.1075C15.1847 21.0881 16.8052 22.7686 18.8458 22.7686H40.5125C42.4931 22.7686 44.1737 24.3891 44.1737 26.4297C44.1737 28.4103 42.5532 30.0909 40.5125 30.0909H34.0305C32.0499 30.0909 30.3694 31.7114 30.3694 33.752C30.3694 35.7326 31.9899 37.4131 34.0305 37.4131H55.9373C57.9179 37.4131 59.5984 39.0336 59.5984 41.0743C59.5984 43.0549 61.2189 44.7354 63.2596 44.7354H84.3261C84.3261 51.1574 89.5477 56.379 95.9697 56.379C102.392 56.379 107.613 51.1574 107.613 44.7354H128.56C130.54 44.7354 132.221 43.1149 132.221 41.0743V4.46293C132.161 2.48232 130.54 0.86182 128.5 0.86182ZM95.9097 50.4372C92.6086 50.4372 89.9078 47.7363 89.9078 44.4353C89.9078 41.1343 92.6086 38.4334 95.9097 38.4334C99.2107 38.4334 101.912 41.1343 101.912 44.4353C101.912 47.7363 99.2107 50.4372 95.9097 50.4372Z" fill="#00FF76"/>
</svg>
