<svg width="290" height="102" viewBox="0 0 290 102" fill="none" xmlns="http://www.w3.org/2000/svg"><path d="M292 98V100H290H196.196C189.79 100 183.796 96.0056 183.724 90.0761C183.708 88.7068 182.954 87.3055 181.438 86.18C179.924 85.0555 177.746 84.3004 175.253 84.3004H115.158C111.884 84.3004 108.837 83.3034 106.563 81.6035C104.291 79.9047 102.687 77.4028 102.687 74.4703C102.687 71.5379 104.291 69.036 106.563 67.3372C108.837 65.6373 111.884 64.6403 115.158 64.6403H160.88C163.37 64.6403 165.559 63.8775 167.08 62.74C168.603 61.6014 169.352 60.1883 169.352 58.8103C169.352 57.4322 168.603 56.0191 167.08 54.8806C165.559 53.743 163.37 52.9802 160.88 52.9802H58.4208C55.1461 52.9802 52.0989 51.9832 49.8255 50.2834C47.5535 48.5845 45.9492 46.0826 45.9492 43.1502C45.9492 40.2177 47.5535 37.7159 49.8255 36.017C52.0989 34.3171 55.1461 33.3201 58.4208 33.3201H86.7197C89.1841 33.3201 91.399 32.6108 92.9785 31.5261C94.5619 30.4388 95.3746 29.0857 95.4595 27.7638C95.5433 26.3063 94.8342 24.8385 93.3262 23.6561C91.8106 22.4678 89.5733 21.6601 86.9842 21.6601H14.4716C11.1969 21.6601 8.14975 20.6631 5.8764 18.9632C3.6044 17.2644 2 14.7625 2 11.83C2 8.89759 3.6044 6.39571 5.8764 4.69685C8.14975 2.99699 11.1969 2 14.4716 2H290H292V4V98Z" stroke="#00FF76" stroke-width="4" stroke-miterlimit="10"/></svg>