<svg width="113" height="43" viewBox="0 0 113 43" fill="none" xmlns="http://www.w3.org/2000/svg"><path d="M109.82 0H3.12892C1.38493 0 0 1.25514 0 2.78919C0 4.32324 1.38493 5.62486 3.12892 5.62486H21.6459C23.3386 5.62486 24.7749 6.88 24.7749 8.46058C24.7749 10.0411 23.3899 11.2962 21.6459 11.2962H16.1063C14.4135 11.2962 12.9773 12.5514 12.9773 14.1319C12.9773 15.6659 14.3622 16.9675 16.1063 16.9675H34.6232C36.3159 16.9675 37.7521 18.2227 37.7521 19.8033C37.7521 21.3373 36.3672 22.6389 34.6232 22.6389H29.0836C27.3908 22.6389 25.9546 23.8941 25.9546 25.4746C25.9546 27.0086 27.3395 28.3103 29.0836 28.3103H47.8057C49.4984 28.3103 50.9346 29.5654 50.9346 31.1459C50.9346 32.68 52.3196 33.9817 54.0635 33.9817H72.0677C72.0677 38.9557 76.5301 43 82.0186 43C87.5069 43 91.9695 38.9557 91.9695 33.9817H109.871C111.564 33.9817 113 32.7265 113 31.1459V2.78919C112.949 1.25514 111.564 0 109.82 0ZM81.9673 38.3978C79.1461 38.3978 76.8379 36.3059 76.8379 33.7492C76.8379 31.1924 79.1461 29.1005 81.9673 29.1005C84.7885 29.1005 87.0967 31.1924 87.0967 33.7492C87.0967 36.3059 84.7885 38.3978 81.9673 38.3978Z" fill="currentColor"/></svg>