<svg width="308" height="42" viewBox="0 0 308 42" fill="none" xmlns="http://www.w3.org/2000/svg"><path d="M87.5618 3.3125H2.49476C1.10424 3.3125 0 4.41674 0 5.76636C0 7.11598 1.10424 8.26111 2.49476 8.26111H17.2588C18.6084 8.26111 19.7536 9.36535 19.7536 10.7559C19.7536 12.1464 18.6493 13.2506 17.2588 13.2506H12.8419C11.4922 13.2506 10.3471 14.3549 10.3471 15.7454C10.3471 17.095 11.4513 18.2401 12.8419 18.2401H27.6059C28.9555 18.2401 30.1006 19.3444 30.1006 20.7349C30.1006 22.0845 28.9964 23.2296 27.6059 23.2296H23.189C21.8393 23.2296 20.6942 24.3339 20.6942 25.7244C20.6942 27.074 21.7984 28.2192 23.189 28.2192H38.1166C39.4662 28.2192 40.6113 29.3234 40.6113 30.7139C40.6113 32.0635 41.7156 33.2087 43.1061 33.2087H57.4612C57.4612 37.5847 61.0192 41.1428 65.3953 41.1428C69.7713 41.1428 73.3294 37.5847 73.3294 33.2087H87.6027C88.9523 33.2087 90.0975 32.1044 90.0975 30.7139V5.76636C90.0566 4.41674 88.9523 3.3125 87.5618 3.3125ZM65.3544 37.0939C63.105 37.0939 61.2646 35.2535 61.2646 33.0042C61.2646 30.7548 63.105 28.9144 65.3544 28.9144C67.6038 28.9144 69.4442 30.7548 69.4442 33.0042C69.4442 35.2535 67.6038 37.0939 65.3544 37.0939Z" fill="#ffffff"/></svg>