<svg width="16" height="22" viewBox="0 0 16 22" fill="none" xmlns="http://www.w3.org/2000/svg"><path fill-rule="evenodd" clip-rule="evenodd" d="M4.03617 1.03045C6.53316 -0.365998 9.60237 -0.34159 12.0759 1.09438C14.5252 2.55961 16.0138 5.17459 15.9999 7.98759C15.9429 10.7821 14.3467 13.409 12.3515 15.4397C11.1999 16.617 9.91162 17.6581 8.51301 18.5416C8.36897 18.6218 8.21119 18.6755 8.04746 18.7C7.88987 18.6935 7.73641 18.6487 7.60091 18.5696C5.46566 17.242 3.5924 15.5474 2.07125 13.5674C0.798392 11.9145 0.0752412 9.91761 1.3277e-06 7.84786C-0.00165107 5.02947 1.53917 2.4269 4.03617 1.03045ZM5.47908 9.01426C5.8991 10.0109 6.89053 10.661 7.99045 10.661C8.71103 10.666 9.4037 10.3882 9.91413 9.88952C10.4246 9.39084 10.7103 8.7127 10.7078 8.00622C10.7116 6.92784 10.052 5.95355 9.03693 5.53825C8.02184 5.12296 6.85152 5.34858 6.0724 6.10978C5.29328 6.87098 5.05905 8.0176 5.47908 9.01426Z" fill="#316DC2"/><path d="M13.7144 20.9C13.7144 21.5075 11.156 22 8.00005 22C4.84411 22 2.28573 21.5075 2.28573 20.9C2.28573 20.2925 4.84411 19.8 8.00005 19.8C11.156 19.8 13.7144 20.2925 13.7144 20.9Z" fill="#316DC2"/></svg>