<svg width="28" height="39" viewBox="0 0 28 39" fill="none" xmlns="http://www.w3.org/2000/svg"><path fill-rule="evenodd" clip-rule="evenodd" d="M28 11.6635C28 10.5674 27.101 9.67248 25.9999 9.67248C24.8988 9.67248 23.9998 10.5674 23.9998 11.6635L23.9998 22.2233C23.9998 23.3193 23.1007 24.2143 21.9997 24.2143C20.8986 24.2143 19.9996 23.3193 19.9996 22.2233L19.9996 10.3474C19.9996 9.25132 19.1005 8.35636 17.9994 8.35636C16.8984 8.35636 15.9993 9.25132 15.9993 10.3474V13.8267C15.9993 14.9027 15.171 15.8177 14.1002 15.868C12.9487 15.9183 11.9991 15.0133 11.9991 13.877L12.0007 1.99104C12.0007 0.894962 11.1016 -4.81295e-08 10.0006 0C8.89948 4.81296e-08 8.00044 0.894962 8.00044 1.99104V27.1473C8.00044 28.2836 7.05089 29.1886 5.89931 29.1383C4.82855 29.0881 4.00022 28.173 4.00022 27.097L4.00022 10.3474C4.00022 9.25132 3.10118 8.35635 2.00011 8.35635C0.89904 8.35635 0 9.25132 0 10.3474V25C0 32.732 6.26801 39 14 39C21.732 39 28 32.7343 28 25.0023V11.6635ZM15.9659 4.32967C15.9659 3.23359 16.865 2.33863 17.9661 2.33863C19.0671 2.33863 19.9662 3.23359 19.9662 4.32967C19.9662 5.42575 19.0671 6.32067 17.9661 6.32067C16.865 6.32067 15.9659 5.42575 15.9659 4.32967Z" fill="url(#paint0_linear_297_18117)"/><defs><linearGradient id="paint0_linear_297_18117" x1="15" y1="4" x2="14" y2="60" gradientUnits="userSpaceOnUse"><stop stop-color="white"/><stop offset="1" stop-color="white" stop-opacity="0"/></linearGradient></defs></svg>