<svg width="452" height="61" viewBox="0 0 452 61" fill="none" xmlns="http://www.w3.org/2000/svg"><path d="M128.5 4.86182H3.66113C1.6205 4.86182 0 6.48232 0 8.46293C0 10.4435 1.6205 12.1241 3.66113 12.1241H25.3278C27.3084 12.1241 28.989 13.7446 28.989 15.7852C28.989 17.8258 27.3685 19.4463 25.3278 19.4463H18.8458C16.8652 19.4463 15.1847 21.0668 15.1847 23.1075C15.1847 25.0881 16.8052 26.7686 18.8458 26.7686H40.5125C42.4931 26.7686 44.1737 28.3891 44.1737 30.4297C44.1737 32.4103 42.5532 34.0909 40.5125 34.0909H34.0305C32.0499 34.0909 30.3694 35.7114 30.3694 37.752C30.3694 39.7326 31.9899 41.4131 34.0305 41.4131H55.9373C57.9179 41.4131 59.5984 43.0336 59.5984 45.0743C59.5984 47.0549 61.2189 48.7354 63.2596 48.7354H84.3261C84.3261 55.1574 89.5477 60.379 95.9697 60.379C102.392 60.379 107.613 55.1574 107.613 48.7354H128.56C130.54 48.7354 132.221 47.1149 132.221 45.0743V8.46293C132.161 6.48232 130.54 4.86182 128.5 4.86182ZM95.9097 54.4372C92.6086 54.4372 89.9078 51.7363 89.9078 48.4353C89.9078 45.1343 92.6086 42.4334 95.9097 42.4334C99.2107 42.4334 101.912 45.1343 101.912 48.4353C101.912 51.7363 99.2107 54.4372 95.9097 54.4372Z" fill="#00FF76"/></svg>