<svg width="12" height="17" viewBox="0 0 12 17" fill="none" xmlns="http://www.w3.org/2000/svg"><path fill-rule="evenodd" clip-rule="evenodd" d="M4.41938 15.5746C2.37587 12.8132 0 9.27551 0 6.31579C0 2.84211 2.52632 0 6 0C9.15789 0 12 2.52632 12 6.63158C12 9.35058 9.67683 12.8435 7.60838 15.5959C6.81288 16.6544 5.20702 16.639 4.41938 15.5746ZM5.99959 8.21054C7.22043 8.21054 8.21012 7.22086 8.21012 6.00002C8.21012 4.77918 7.22043 3.78949 5.99959 3.78949C4.77875 3.78949 3.78906 4.77918 3.78906 6.00002C3.78906 7.22086 4.77875 8.21054 5.99959 8.21054Z" fill="#878787"/></svg>