<svg xmlns="http://www.w3.org/2000/svg" xmlns:xlink="http://www.w3.org/1999/xlink"><defs><clipPath id="clip0_248_2190"><rect width="25" height="25" fill="currentColor"/></clipPath><clipPath id="clip0_248_2161"><rect width="25" height="25" fill="currentColor"/></clipPath><clipPath id="clip0_248_2173"><rect width="23" height="23" fill="currentColor"/></clipPath><clipPath id="clip0_131_2748"><rect width="22" height="22" fill="white"/></clipPath><linearGradient id="paint0_linear_297_18117" x1="15" y1="4" x2="14" y2="60" gradientUnits="userSpaceOnUse"><stop stop-color="white"/><stop offset="1" stop-color="white" stop-opacity="0"/></linearGradient></defs><symbol id="icon--arrow" viewBox="0 0 10 10"><g fill="none"><path id="Vector 21" d="M1 9L9 1M9 1H1.05298M9 1V8.94702" stroke="currentColor"/></g></symbol><symbol id="icon--menu" viewBox="0 0 22 12"><g fill="none"><path id="Vector" d="M1 1H21M1 6H21M1 11H21" stroke="#316DC2" stroke-linecap="round"/></g></symbol><symbol id="icon-arrow-dw" viewBox="0 0 22 11"><g fill="none"><path d="M21 1L11 10L1 1" stroke="#316DC2"/></g></symbol><symbol id="icon-arrow-tr" viewBox="0 0 22 22"><g fill="none"><path id="Vector 21" d="M1 21L21 1M21 1H1.13245M21 1V20.8676" stroke="currentColor"/></g></symbol><symbol id="icon-arrow" viewBox="0 0 14 9"><g fill="none"><path id="Arrow/left" d="M0.646446 4.85355C0.451184 4.65829 0.451184 4.34171 0.646446 4.14645L3.82843 0.964466C4.02369 0.769204 4.34027 0.769204 4.53553 0.964466C4.7308 1.15973 4.7308 1.47631 4.53553 1.67157L1.70711 4.5L4.53553 7.32843C4.7308 7.52369 4.7308 7.84027 4.53553 8.03553C4.34027 8.2308 4.02369 8.2308 3.82843 8.03553L0.646446 4.85355ZM14 5H1V4H14V5Z" fill="currentColor"/></g></symbol><symbol id="icon-catalog" viewBox="0 0 18 17"><g fill="none"><rect x="0.5" width="7.72727" height="7.72727" rx="2" fill="white"/><rect x="0.5" y="9.27246" width="7.72727" height="7.72727" rx="2" fill="white"/><rect x="9.77344" width="7.72727" height="7.72727" rx="2" fill="white"/><rect x="9.77344" y="9.27246" width="7.72727" height="7.72727" rx="2" fill="white"/></g></symbol><symbol id="icon-check" viewBox="0 0 22 20"><g fill="none"><path id="Vector 28" d="M1 8.5L8.36842 19L21 1" stroke="#316DC2" stroke-linecap="round" stroke-linejoin="round"/></g></symbol><symbol id="icon-close" viewBox="0 0 20 20"><g fill="none"><path d="M.293 18.291a1 1 0 101.414 1.414L10 11.413l8.292 8.292a1 1 0 101.414-1.414l-8.292-8.292 8.292-8.292A1 1 0 1018.291.293L9.999 8.585 1.707.293A1 1 0 10.293 1.707L8.585 10 .293 18.291z" fill="currentColor"/></g></symbol><symbol id="icon-e-boots" viewBox="0 0 24 24"><g fill="none"><g id="boots"><g id="Group"><g id="Group_2"><path id="Vector" d="M23.6583 15.6155C24.404 13.2805 23.7904 10.6301 23.1385 8.79354C23.1342 8.72248 23.1123 8.65361 23.0746 8.59327C22.853 7.99671 22.6484 7.50669 22.4737 7.15302C22.7953 7.02497 23.0075 6.71509 23.0106 6.36898V2.8195C23.0106 2.34881 22.6291 1.96729 22.1584 1.96729H11.6889C11.4536 1.96686 11.2625 2.15728 11.2621 2.39265C11.2621 2.40144 11.2624 2.41023 11.2628 2.41896C11.4077 4.97561 11.2202 6.70987 10.6791 7.9328C10.6683 7.94494 10.6583 7.95778 10.6492 7.97115C10.6476 7.9924 10.6476 8.01381 10.6492 8.03506C10.4427 8.48024 10.1633 8.88776 9.82259 9.24095L9.78424 9.26652C9.78424 9.26652 9.78424 9.26652 9.78424 9.29634C9.28468 9.77279 8.70853 10.1617 8.07981 10.4468C6.98439 10.9329 5.86021 11.3512 4.71355 11.6996L4.49624 11.772C0.512129 13.093 -0.00772321 15.4877 0.000798953 16.6893C-0.000266318 16.7064 -0.000266318 16.7234 0.000798953 16.7404V19.7829C0.00143811 19.9309 0.07883 20.068 0.205331 20.1451C1.18176 20.7392 2.23574 21.1951 3.33722 21.5001C3.56375 21.5638 3.79907 21.4318 3.86278 21.2052C3.87476 21.1625 3.88003 21.1182 3.87838 21.074V20.976H4.50476V21.4021C4.50204 21.6132 4.65433 21.7944 4.86269 21.8282C5.23341 21.8878 5.60412 21.9347 5.96631 21.9645C6.08498 21.9745 6.20243 21.9343 6.29015 21.8537C6.37783 21.7724 6.42731 21.658 6.42651 21.5384V21.0015H7.05289V21.6066C7.05289 21.8419 7.24368 22.0327 7.479 22.0327C7.83693 22.0327 8.19486 22.0327 8.57835 21.9816C8.8003 21.9638 8.97107 21.7781 8.97037 21.5555V21.0015H9.59675V21.3765C9.59372 21.6118 9.782 21.8051 10.0173 21.8081C10.042 21.8084 10.0666 21.8066 10.091 21.8026C10.8732 21.6828 11.6442 21.499 12.3963 21.2529L12.4645 21.2231C15.4472 19.5187 17.3391 20.9206 17.4158 20.9802C17.4902 21.038 17.5816 21.0694 17.6758 21.0697H18.2041C18.4395 21.0697 18.6302 20.8789 18.6302 20.6436V19.9235H19.2396V20.6351C19.2396 20.8704 19.4304 21.0612 19.6657 21.0612H21.0378C21.2731 21.0612 21.4639 20.8704 21.4639 20.6351V19.9235H22.0945V20.6351C22.0945 20.8704 22.2853 21.0612 22.5206 21.0612H23.5731C23.8084 21.0612 23.9992 20.8704 23.9992 20.6351V16.0416C24.0034 15.8359 23.8599 15.6566 23.6583 15.6155ZM13.5468 2.82802H13.8962H22.1371V6.3562H13.5468V2.82802ZM8.1906 11.3246L8.19486 11.3502C8.54416 11.6338 8.86651 11.949 9.15786 12.2919C9.08058 12.4204 9.04073 12.568 9.04281 12.718C9.03988 13.1675 9.40191 13.5342 9.85135 13.5371C10.3008 13.5401 10.6676 13.178 10.6705 12.7286C10.6733 12.3051 10.3509 11.9504 9.92912 11.9126C9.6596 11.5452 9.35254 11.2067 9.01298 10.9028C9.39377 10.686 9.75202 10.432 10.0825 10.1443C10.4958 10.532 10.8803 10.9493 11.233 11.3928C11.0848 11.8171 11.3086 12.2813 11.7329 12.4296C12.1572 12.5778 12.6214 12.354 12.7697 11.9297C12.9179 11.5053 12.6941 11.0412 12.2698 10.8929C12.1817 10.8621 12.0891 10.8467 11.9957 10.8474H11.8935C11.5197 10.3768 11.1125 9.93396 10.6748 9.52218C10.8779 9.27211 11.0576 9.00398 11.2117 8.7211C11.8714 9.06449 12.5089 9.44873 13.1207 9.87159C13.1165 10.3258 13.4813 10.6973 13.9354 10.7015C14.3896 10.7057 14.7612 10.3409 14.7654 9.88677C14.7696 9.43259 14.4048 9.06102 13.9506 9.05682C13.8209 9.05559 13.6927 9.0851 13.5766 9.14294C12.9327 8.70704 12.2624 8.31145 11.5696 7.95836C12.0341 6.72265 12.2344 5.08214 12.1406 2.84507H12.6988V6.37324C12.6988 6.84393 13.0803 7.22546 13.551 7.22546H21.5363C21.6471 7.4513 21.8346 7.84331 22.0391 8.35464H21.8644C19.2758 8.37334 17.1925 10.4869 17.2112 13.0755C17.2218 14.5465 17.9224 15.9272 19.1032 16.8044C15.656 17.712 10.4703 18.79 6.10693 18.5088C6.91227 15.2917 5.94927 13.3103 5.32289 12.441C6.2983 12.1211 7.25561 11.7484 8.1906 11.3246ZM4.46641 12.6839C4.92661 13.2251 6.12823 15.0445 5.24619 18.3895C3.71082 18.2688 2.2196 17.8182 0.874321 17.0686C0.859034 16.9712 0.849074 16.873 0.844493 16.7745V16.7447C0.810404 15.8371 1.15129 13.8727 4.46641 12.6839ZM22.9467 20.209V19.4974C22.9467 19.262 22.7559 19.0713 22.5206 19.0713H21.042C20.8067 19.0713 20.6159 19.262 20.6159 19.4974V20.209H20.0918V19.4974C20.0918 19.262 19.901 19.0713 19.6657 19.0713H18.1956C17.9603 19.0713 17.7695 19.262 17.7695 19.4974V20.1919C17.19 19.8297 15.0722 18.7772 12.0682 20.4561C11.5337 20.6325 10.9886 20.7748 10.4362 20.8822V20.5882C10.4362 20.3529 10.2454 20.1621 10.0101 20.1621H8.54C8.30469 20.1621 8.1139 20.3529 8.1139 20.5882V21.172H7.89658V20.5754C7.89658 20.3401 7.70579 20.1493 7.47047 20.1493H5.99188C5.75656 20.1493 5.56577 20.3401 5.56577 20.5754V21.0825L5.34845 21.0527V20.5754C5.34845 20.3401 5.15767 20.1493 4.92235 20.1493H3.44375C3.22702 20.1478 3.04364 20.3091 3.01764 20.5243C2.26136 20.2753 1.53308 19.9482 0.844493 19.5485V18.023C2.70232 19.0073 5.10557 19.3781 7.66222 19.3781C14.4544 19.3781 22.2266 16.7788 23.1427 16.4677L23.147 20.209H22.9467ZM22.7379 15.7135C22.3757 15.8328 21.4852 16.1396 20.2537 16.4677C18.3473 15.5451 17.5497 13.2516 18.4724 11.3451C19.1036 10.041 20.4158 9.20393 21.8644 9.18129C22.0324 9.17895 22.2003 9.18747 22.3672 9.20686L22.3715 9.21964C22.9979 11.0263 23.5603 13.6043 22.7379 15.7135Z" fill="currentColor"/></g></g><g id="Group_3"><g id="Group_4"><path id="Vector_2" d="M15.1872 3.34375C14.5024 3.34375 13.9473 3.89892 13.9473 4.58372C13.9496 5.26757 14.5034 5.82135 15.1872 5.8237C15.872 5.8237 16.4272 5.26853 16.4272 4.58372C16.4272 3.89892 15.8721 3.34375 15.1872 3.34375ZM15.1872 4.97148C14.9731 4.97148 14.7995 4.7979 14.7995 4.58372C14.7995 4.36955 14.9731 4.19597 15.1872 4.19597C15.4014 4.19597 15.575 4.36955 15.575 4.58372C15.575 4.7979 15.4014 4.97148 15.1872 4.97148Z" fill="currentColor"/></g></g></g></g></symbol><symbol id="icon-e-map" viewBox="0 0 25 25"><g fill="none"><g id="map" clip-path="url(#clip0_248_2190)"><g id="Group"><g id="Group_2"><path id="Vector" d="M24.1704 22.2803V6.70123C24.1823 6.44571 23.9848 6.22897 23.7293 6.2171C23.6748 6.21456 23.6204 6.22168 23.5684 6.23812V6.26127L21.4844 6.91426C21.7026 6.33016 21.8321 5.71665 21.8688 5.09423C21.8688 2.28077 19.588 0 16.7745 0C13.9611 0 11.6803 2.28077 11.6803 5.09423C11.7128 5.68754 11.833 6.27279 12.0369 6.8309L8.59135 5.59902C8.55135 5.5941 8.51094 5.5941 8.47094 5.59902H8.43389C8.37837 5.60001 8.32344 5.61101 8.2718 5.63144L1.12598 8.41011C0.961171 8.47281 0.846262 8.62361 0.82959 8.79913V16.246V24.3967C0.830342 24.6525 1.03828 24.8592 1.29409 24.8585C1.35065 24.8583 1.40669 24.8478 1.45942 24.8274L8.44315 22.1229L16.4087 24.9756C16.5048 25.0081 16.6089 25.0081 16.7051 24.9756L23.8463 22.7434C24.0469 22.6806 24.18 22.4904 24.1704 22.2803ZM16.7745 0.926224C19.0765 0.926224 20.9425 2.79228 20.9425 5.09423C20.9425 6.905 18.2241 11.9066 16.7745 14.3565C15.325 11.8881 12.6065 6.88184 12.6065 5.09423C12.6065 2.79228 14.4726 0.926224 16.7745 0.926224ZM23.2581 21.9608L17.0246 23.9105V20.3769C17.0246 20.1212 16.8173 19.9138 16.5615 19.9138C16.3057 19.9138 16.0984 20.1212 16.0984 20.3769V23.8781L8.90163 21.3032V18.3392C8.90163 18.0835 8.69427 17.8761 8.43852 17.8761C8.18277 17.8761 7.97541 18.0835 7.97541 18.3392V21.3032L1.75581 23.7252V16.5655L4.04359 15.6393C4.2884 15.5652 4.42675 15.3067 4.35266 15.0618C4.27856 14.817 4.02003 14.6787 3.77521 14.7528C3.74963 14.7605 3.72473 14.7705 3.70083 14.7825L1.75576 15.5652V9.11868L7.97535 6.71049V8.09983C7.97535 8.35558 8.18271 8.56294 8.43846 8.56294C8.69421 8.56294 8.90157 8.35558 8.90157 8.09983V6.69197L12.4536 7.96553C13.5928 10.5687 14.9032 13.0936 16.3762 15.5235C16.5088 15.7422 16.7936 15.8119 17.0123 15.6793C17.076 15.6407 17.1295 15.5872 17.1681 15.5235C18.6339 13.1079 19.9396 10.5985 21.0768 8.01184L23.2442 7.33106L23.258 14.9215L20.9101 15.4911C20.6543 15.5218 20.4718 15.754 20.5025 16.0098C20.5332 16.2655 20.7655 16.448 21.0212 16.4173C21.0581 16.4218 21.0954 16.4218 21.1324 16.4173L23.258 15.8986V21.9608H23.2581Z" fill="currentColor"/></g></g><g id="Group_3"><g id="Group_4"><path id="Vector_2" d="M16.7556 2.40332C15.2696 2.40332 14.0649 3.60799 14.0649 5.094C14.0649 6.58001 15.2696 7.78468 16.7556 7.78468C18.2406 7.78213 19.4438 6.57897 19.4463 5.094C19.4463 3.60799 18.2416 2.40332 16.7556 2.40332ZM16.7556 6.85846C15.7895 6.84584 15.0121 6.06028 15.0097 5.094H14.9912C14.9912 4.1195 15.7811 3.32954 16.7556 3.32954C17.7301 3.32954 18.5201 4.1195 18.5201 5.094C18.5201 6.0685 17.7301 6.85846 16.7556 6.85846Z" fill="currentColor"/></g></g><g id="Group_5"><g id="Group_6"><path id="Vector_3" d="M10.6981 13.9672V13.9811L8.45661 13.0132C8.34251 12.9656 8.21411 12.9656 8.10001 13.0132L6.20589 13.7774C5.96802 13.8733 5.85294 14.1439 5.94886 14.3817C6.04478 14.6196 6.31536 14.7347 6.55322 14.6387L8.26673 13.9487L10.3276 14.8194C10.3861 14.8443 10.4492 14.8569 10.5128 14.8564C10.7686 14.8585 10.9776 14.6529 10.9797 14.3971C10.9812 14.2101 10.8701 14.0405 10.6981 13.9672Z" fill="currentColor"/></g></g><g id="Group_7"><g id="Group_8"><path id="Vector_4" d="M18.27 16.6161C18.201 16.393 17.9766 16.2562 17.7467 16.2969L17.7513 16.2599L16.6028 16.5377L14.6578 15.6949C14.4224 15.5926 14.1487 15.7004 14.0465 15.9357C13.9442 16.171 14.052 16.4447 14.2873 16.547L16.3713 17.4732C16.4298 17.4982 16.4929 17.5108 16.5565 17.5103H16.6677L17.9644 17.1954C18.2087 17.1198 18.3455 16.8604 18.27 16.6161Z" fill="currentColor"/></g></g></g></g></symbol><symbol id="icon-e-mountain" viewBox="0 0 25 25"><g fill="none"><g id="mountain" clip-path="url(#clip0_248_2161)"><g id="Group"><g id="Group_2"><path id="Vector" d="M23.4153 24.1879L19.3747 14.7901L15.5583 5.9074C15.4551 5.665 15.1749 5.55224 14.9325 5.65546C14.8192 5.70376 14.7289 5.79404 14.6806 5.9074L11.2744 13.8121L9.93871 16.9177L7.00963 10.1579C6.90634 9.91551 6.62614 9.80274 6.3838 9.90596C6.27044 9.95427 6.18016 10.0445 6.13186 10.1579L3.37928 16.517L0.0399368 24.1831C-0.0654315 24.4246 0.0448861 24.7058 0.286333 24.8112C0.347037 24.8377 0.412572 24.8513 0.478822 24.851H22.9765C23.2399 24.8508 23.4533 24.6371 23.4531 24.3736C23.4531 24.3098 23.4402 24.2467 23.4153 24.1879ZM15.1147 7.29561L18.2107 14.4943H17.1231L15.1576 12.3237C14.9804 12.1287 14.6787 12.1143 14.4837 12.2916C14.4531 12.3194 14.4263 12.351 14.4039 12.3857L13.6692 13.5211H12.4384L15.1147 7.29561ZM6.57074 11.5318L9.018 17.1896H7.68226C7.52007 17.1899 7.36914 17.2726 7.28154 17.4091L6.80449 18.1676L5.57371 16.4311C5.48474 16.3028 5.33864 16.2262 5.18253 16.226H4.54805L6.57074 11.5318ZM1.22779 23.8969L4.13302 17.1801H4.93446L6.42285 19.3029C6.51182 19.4312 6.65792 19.5078 6.81403 19.5081C6.97283 19.5046 7.11947 19.4223 7.20522 19.2886L7.93987 18.1532H9.42826L11.9137 23.8778L1.22779 23.8969ZM12.9584 23.8969L10.4587 18.1246L12.0282 14.4752H13.9364C14.0986 14.4749 14.2495 14.3923 14.3371 14.2558L14.8666 13.44L16.5554 15.3053C16.6455 15.4052 16.7738 15.4624 16.9084 15.4627H18.6162L22.2466 23.9112L12.9584 23.8969Z" fill="currentColor"/></g></g><g id="Group_3"><g id="Group_4"><path id="Vector_2" d="M7.61096 2.08189C7.16093 0.922602 5.85626 0.347698 4.69703 0.797794C3.83387 1.13286 3.26385 1.96221 3.26028 2.8881C3.25557 2.97075 3.25557 3.05352 3.26028 3.13617C2.13241 3.65997 1.64278 4.99893 2.16658 6.12679C2.52932 6.90778 3.30572 7.41351 4.16667 7.42961L4.19052 7.44869H7.52987C9.01188 7.47112 10.2314 6.28786 10.2538 4.80584C10.2762 3.32383 9.09298 2.10431 7.61096 2.08189ZM7.55849 6.50891H4.21914C3.50512 6.58267 2.86653 6.0637 2.79277 5.34968C2.719 4.63565 3.23797 3.99706 3.952 3.9233C4.21026 3.87124 4.37747 3.61972 4.32541 3.3614C4.32141 3.34166 4.31622 3.32216 4.30978 3.30314C4.26321 3.16968 4.23906 3.02943 4.23823 2.8881C4.23417 2.17146 4.81176 1.58725 5.52841 1.58314C6.16234 1.5795 6.70606 2.03448 6.81429 2.65912C6.85812 2.90993 7.09122 3.08208 7.34382 3.0503C7.41531 3.04559 7.48699 3.04559 7.55849 3.0503C8.51354 3.0503 9.28779 3.82455 9.28779 4.7796C9.28779 5.73466 8.51354 6.50891 7.55849 6.50891Z" fill="currentColor"/></g></g><g id="Group_5"><g id="Group_6"><path id="Vector_3" d="M23.6966 2.63997C23.7013 2.55733 23.7013 2.47456 23.6966 2.39191C23.6917 1.14836 22.6797 0.144172 21.4362 0.148943C20.517 0.152521 19.6936 0.714604 19.3539 1.56727C17.8794 1.59816 16.7046 2.81392 16.7269 4.29057C16.7493 5.77258 17.9688 6.95584 19.4508 6.93342H22.7902C24.0335 6.91016 25.0226 5.88343 24.9994 4.64006C24.9833 3.77911 24.4776 3.00271 23.6966 2.63997ZM24.0559 4.94758C23.9296 5.54008 23.4102 5.96632 22.8045 5.97455H19.4651C18.5101 5.97455 17.7358 5.2003 17.7358 4.24525C17.7358 3.29019 18.5101 2.51594 19.4651 2.51594C19.5366 2.51123 19.6083 2.51123 19.6798 2.51594C19.9212 2.54099 20.1429 2.38088 20.195 2.14384C20.3146 1.43727 20.9843 0.961417 21.6909 1.08098C22.3975 1.20054 22.8734 1.87026 22.7538 2.57688C22.7416 2.64862 22.7235 2.71922 22.6995 2.78792C22.6153 3.03754 22.7494 3.3082 22.9991 3.39246C23.0181 3.3989 23.0376 3.40415 23.0573 3.40808C23.7582 3.5574 24.2053 4.24668 24.0559 4.94758Z" fill="currentColor"/></g></g></g></g></symbol><symbol id="icon-e-tree" viewBox="0 0 23 23"><g fill="none"><g id="pine-tree" clip-path="url(#clip0_248_2173)"><g id="Group"><g id="Group_2"><path id="Vector" d="M22.6246 16.6365L18.1102 11.472H20.2913C20.546 11.4714 20.7519 11.2644 20.7514 11.0098C20.7511 10.9084 20.7175 10.8099 20.6556 10.7296L17.0312 5.96623H18.8757C19.1304 5.96589 19.3365 5.75919 19.3363 5.50454C19.3361 5.39271 19.2953 5.28475 19.2215 5.20077L14.7856 0.156126C14.6172 -0.0348923 14.3257 -0.0531642 14.1347 0.115317C14.1202 0.128056 14.1066 0.141716 14.0939 0.156126L9.65332 5.19616C9.4827 5.38522 9.49763 5.67682 9.68663 5.84744C9.77229 5.92473 9.88376 5.9671 9.99916 5.96623H11.8667L10.7508 7.42337L7.76273 4.02492C7.5943 3.8339 7.30288 3.81563 7.11186 3.98411C7.09739 3.99685 7.08379 4.01051 7.07105 4.02492L3.27604 8.33639C3.10796 8.52769 3.12681 8.81906 3.31811 8.98714C3.40209 9.06092 3.51005 9.10167 3.62188 9.10184H5.08362L2.04946 13.0721C1.89919 13.2777 1.94398 13.5662 2.14958 13.7165C2.22636 13.7726 2.31864 13.8036 2.41374 13.8053H4.11988L0.370984 18.1167C0.205442 18.3102 0.228094 18.6013 0.421649 18.7669C0.503959 18.8373 0.608518 18.8765 0.716823 18.8776H5.8168V22.1054C5.8168 22.5994 6.21734 23 6.71138 23H8.11779C8.61182 23.0025 9.01444 22.6041 9.01697 22.11C9.01697 22.1085 9.01697 22.107 9.01697 22.1054V18.8776H12.8443V22.1054C12.8443 22.5994 13.2448 23 13.7388 23H15.1453C15.6393 23 16.0398 22.5994 16.0398 22.1054V17.402H22.2788C22.5334 17.4017 22.7396 17.195 22.7393 16.9403C22.7391 16.8285 22.6984 16.7205 22.6246 16.6365ZM8.09473 22.0777L6.73904 22.1054L6.71138 18.8776H8.09473V22.0777ZM12.8443 17.9553H1.73129L5.50324 13.6531C5.67397 13.4642 5.65916 13.1726 5.47021 13.0018C5.38214 12.9223 5.2668 12.8797 5.14818 12.883H3.34981L6.38398 8.91279C6.53932 8.71099 6.50168 8.42146 6.29988 8.26612C6.21953 8.20428 6.12109 8.17061 6.0197 8.17038H4.63634L7.40306 5.02094L10.1698 8.16116L8.22385 10.7342C8.06851 10.936 8.10615 11.2255 8.30795 11.3809C8.3883 11.4427 8.48674 11.4764 8.58813 11.4766H10.7738L6.25948 16.6411C6.0914 16.8325 6.11025 17.1238 6.30156 17.2919C6.38554 17.3657 6.4935 17.4064 6.60532 17.4066H12.8443V17.9553ZM15.1176 22.0685L13.7665 22.1054L13.7388 17.402H15.1222L15.1176 22.0685ZM15.1453 16.4798H7.61978L12.1341 11.3152C12.3022 11.1239 12.2834 10.8325 12.0921 10.6645C12.0081 10.5907 11.9001 10.5499 11.7883 10.5498H9.52421L13.167 5.78178C13.3199 5.57808 13.2786 5.28902 13.0749 5.13622C12.9963 5.07731 12.901 5.04497 12.8028 5.04399H11.0367L14.4582 1.16137L17.8612 5.04399H16.0813C15.8267 5.04463 15.6207 5.25155 15.6213 5.50621C15.6215 5.6076 15.6552 5.70605 15.717 5.7864L19.3368 10.5498H17.0912C16.8365 10.5501 16.6303 10.7568 16.6306 11.0115C16.6307 11.1233 16.6716 11.2312 16.7453 11.3152L21.2597 16.4798H15.1453Z" fill="currentColor"/></g></g></g></g></symbol><symbol id="icon-f-boots" viewBox="0 0 22 22"><g fill="none"><g id="icon/boots"><g id="Vector"><path d="M20.7153 14.2434C21.3367 12.1487 20.8254 9.77108 20.2821 8.12359C20.2785 8.05985 20.2602 7.99807 20.2288 7.94394C20.0442 7.40879 19.8737 6.96921 19.7281 6.65194C19.9961 6.53708 20.1729 6.25909 20.1755 5.94861V2.76449C20.1755 2.34225 19.8576 2 19.4654 2H10.7408C10.5447 1.99962 10.3854 2.17043 10.3851 2.38158C10.3851 2.38946 10.3853 2.39735 10.3857 2.40518C10.5064 4.69866 10.3502 6.25441 9.89923 7.35146C9.89026 7.36235 9.88196 7.37386 9.87437 7.38586C9.87304 7.40492 9.87304 7.42413 9.87437 7.44319C9.70224 7.84255 9.46943 8.20812 9.1855 8.52495L9.15354 8.54789C9.15354 8.54789 9.15354 8.54789 9.15354 8.57465C8.73724 9.00205 8.25711 9.35094 7.73318 9.60671C6.82033 10.0427 5.88351 10.418 4.92796 10.7305L4.74687 10.7955C1.42677 11.9805 0.993564 14.1287 1.00067 15.2066C0.999778 15.2219 0.999778 15.2372 1.00067 15.2525V17.9817C1.0012 18.1146 1.06569 18.2376 1.17111 18.3066C1.9848 18.8396 2.86311 19.2486 3.78102 19.5222C3.9698 19.5793 4.1659 19.4609 4.21898 19.2577C4.22897 19.2194 4.23336 19.1797 4.23199 19.1399V19.052H4.75397V19.4343C4.75171 19.6236 4.87861 19.7862 5.05225 19.8165C5.36117 19.87 5.6701 19.9121 5.97193 19.9388C6.07082 19.9478 6.16869 19.9117 6.2418 19.8395C6.31486 19.7665 6.35609 19.6639 6.35543 19.5566V19.075H6.87741V19.6178C6.87741 19.8288 7.0364 20 7.2325 20C7.53077 20 7.82905 20 8.14863 19.9541C8.33359 19.9382 8.47589 19.7716 8.47531 19.5719V19.075H8.9973V19.4113C8.99477 19.6224 9.15167 19.7958 9.34777 19.7985C9.36832 19.7988 9.38887 19.7972 9.4092 19.7936C10.061 19.6861 10.7035 19.5212 11.3302 19.3005L11.3871 19.2737C13.8727 17.7447 15.4493 19.0023 15.5132 19.0559C15.5752 19.1076 15.6513 19.1358 15.7298 19.1361H16.1701C16.3662 19.1361 16.5252 18.965 16.5252 18.7539V18.1079H17.033V18.7462C17.033 18.9573 17.192 19.1285 17.3881 19.1285H18.5315C18.7276 19.1285 18.8866 18.9573 18.8866 18.7462V18.1079H19.4121V18.7462C19.4121 18.9573 19.5711 19.1285 19.7672 19.1285H20.6443C20.8404 19.1285 20.9993 18.9573 20.9993 18.7462V14.6256C21.0028 14.4411 20.8833 14.2803 20.7153 14.2434ZM12.289 2.77214H19.4476V5.93714H12.289V2.77214ZM7.8255 10.3941L7.82905 10.4171C8.12014 10.6715 8.38876 10.9543 8.63155 11.2618C8.56715 11.3771 8.53395 11.5095 8.53568 11.6441C8.53324 12.0473 8.83493 12.3763 9.20946 12.3789C9.58404 12.3815 9.88964 12.0568 9.89208 11.6536C9.89439 11.2737 9.62572 10.9555 9.27427 10.9216C9.04967 10.592 8.79379 10.2884 8.51082 10.0157C8.82814 9.8213 9.12668 9.59338 9.4021 9.33532C9.74649 9.68311 10.0669 10.0574 10.3608 10.4553C10.2373 10.836 10.4238 11.2523 10.7774 11.3854C11.131 11.5183 11.5178 11.3176 11.6414 10.9369C11.7649 10.5563 11.5784 10.1399 11.2248 10.0069C11.1515 9.97926 11.0742 9.96545 10.9965 9.96602H10.9112C10.5998 9.54393 10.2604 9.14663 9.89567 8.77724C10.0649 8.5529 10.2147 8.31238 10.3431 8.05861C10.8928 8.36665 11.4241 8.71135 11.9339 9.09068C11.9304 9.49811 12.2344 9.83143 12.6129 9.8352C12.9914 9.83897 13.301 9.51172 13.3045 9.1043C13.308 8.69687 13.004 8.36355 12.6255 8.35977C12.5174 8.35868 12.4106 8.38515 12.3138 8.43704C11.7773 8.046 11.2187 7.69113 10.6414 7.37439C11.0284 6.26587 11.1953 4.79422 11.1172 2.78743H11.5824V5.95243C11.5824 6.37467 11.9003 6.71693 12.2925 6.71693H18.9469C19.0392 6.91952 19.1955 7.27118 19.3659 7.72988H19.2203C17.0632 7.74665 15.3271 9.64269 15.3427 11.9648C15.3515 13.2844 15.9353 14.5229 16.9194 15.3098C14.0467 16.124 9.72523 17.0911 6.08911 16.8388C6.76023 13.9529 5.95773 12.1754 5.43574 11.3956C6.24859 11.1086 7.04634 10.7743 7.8255 10.3941ZM4.72201 11.6135C5.10551 12.099 6.10686 13.7312 5.37183 16.7318C4.09235 16.6235 2.84967 16.2193 1.7286 15.5468C1.71586 15.4595 1.70756 15.3714 1.70374 15.2831V15.2563C1.67534 14.4421 1.95941 12.68 4.72201 11.6135ZM20.1223 18.364V17.7256C20.1223 17.5145 19.9633 17.3434 19.7672 17.3434H18.535C18.3389 17.3434 18.1799 17.5145 18.1799 17.7256V18.364H17.7432V17.7256C17.7432 17.5145 17.5842 17.3434 17.3881 17.3434H16.163C15.9669 17.3434 15.8079 17.5145 15.8079 17.7256V18.3487C15.325 18.0238 13.5602 17.0796 11.0568 18.5857C10.6114 18.7439 10.1572 18.8716 9.69683 18.9679V18.7042C9.69683 18.4931 9.53783 18.3219 9.34173 18.3219H8.11667C7.92058 18.3219 7.76158 18.4931 7.76158 18.7042V19.2279H7.58049V18.6927C7.58049 18.4816 7.4215 18.3105 7.2254 18.3105H5.99323C5.79714 18.3105 5.63814 18.4816 5.63814 18.6927V19.1476L5.45705 19.1208V18.6927C5.45705 18.4816 5.29806 18.3105 5.10196 18.3105H3.86979C3.68919 18.3091 3.53637 18.4538 3.5147 18.6468C2.88446 18.4235 2.27757 18.1301 1.70374 17.7715V16.4031C3.25194 17.286 5.25465 17.6186 7.38519 17.6186C13.0453 17.6186 19.5222 15.2869 20.2856 15.0079L20.2892 18.364H20.1223ZM19.9483 14.3313C19.6465 14.4383 18.9043 14.7135 17.8781 15.0079C16.2894 14.1801 15.6248 12.1228 16.3937 10.4125C16.9197 9.24267 18.0132 8.49175 19.2203 8.47144C19.3603 8.46934 19.5003 8.47698 19.6394 8.49437L19.6429 8.50584C20.1649 10.1266 20.6336 12.4392 19.9483 14.3313Z" fill="currentColor"/><path d="M13.6564 3.23469C13.0857 3.23469 12.6231 3.73271 12.6231 4.34703C12.625 4.96049 13.0865 5.45727 13.6564 5.45937C14.227 5.45937 14.6897 4.96135 14.6897 4.34703C14.6897 3.73271 14.2271 3.23469 13.6564 3.23469ZM13.6564 4.69487C13.4779 4.69487 13.3332 4.53916 13.3332 4.34703C13.3332 4.1549 13.4779 3.99918 13.6564 3.99918C13.8348 3.99918 13.9795 4.1549 13.9795 4.34703C13.9795 4.53916 13.8348 4.69487 13.6564 4.69487Z" fill="currentColor"/></g></g></g></symbol><symbol id="icon-f-crown" viewBox="0 0 22 22"><g fill="none"><g id="icon/crown"><path id="icon/crown_2" d="M17.6867 20H4.31331M21 7.11028L18.0746 16.8049H3.92539L1 7.11028L6.77168 10.6142L11 2L15.2283 10.6142L21 7.11028Z" stroke="currentColor"/></g></g></symbol><symbol id="icon-f-leaf" viewBox="0 0 22 22"><g fill="none"><g id="icon/leaf"><path id="icon/leaf_2" d="M10.6903 16.2442C10.0125 13.3813 8.01953 10.9718 5.27543 9.69773C3.92399 9.07026 2.46282 8.75181 1 8.74238C1.08555 10.771 1.83429 12.7457 3.17529 14.367C5.06036 16.646 7.9121 17.9803 10.933 17.9998C10.9083 17.4135 10.828 16.8259 10.6903 16.2442ZM10.6903 16.2442C10.1339 13.894 8.69109 11.8494 6.67408 10.4875C6.70814 10.2845 6.74903 10.0818 6.79684 9.87988C7.37026 7.4577 8.88519 5.36004 11 4C13.1147 5.36004 14.6297 7.4577 15.2031 9.87988C15.2509 10.0818 15.2918 10.2845 15.3258 10.4875C13.3088 11.8493 11.8661 13.894 11.3097 16.2442M10.6903 16.2442C10.8279 16.8257 10.9082 17.4131 10.933 17.9992C10.9748 17.9997 11.0166 18 11.0585 18C11.9054 18 12.7394 17.8966 13.5431 17.698C13.5477 17.692 13.5522 17.6859 13.5567 17.6799C12.752 17.8849 11.9162 17.9943 11.067 17.9998M11.3097 16.2442C11.9875 13.3813 13.9805 10.9718 16.7246 9.69773C18.076 9.07026 19.5372 8.75181 21 8.74238C20.9144 10.771 20.1657 12.7457 18.8247 14.367C16.9396 16.646 14.0879 17.9803 11.067 17.9998M11.3097 16.2442C11.172 16.8259 11.0917 17.4135 11.067 17.9998" stroke="currentColor" stroke-linecap="round" stroke-linejoin="round"/></g></g></symbol><symbol id="icon-f-level" viewBox="0 0 22 22"><g fill="none"><g id="icon/level"><path id="icon/shield" d="M8.75001 10.912L11 13.1562L14.9375 9.22882M11 1C8.67869 2.18698 6.09257 2.81813 3.44902 2.81813C3.09212 2.81813 2.73627 2.80662 2.38197 2.7838C1.92463 4.87029 1.87403 7.04136 2.25148 9.17646C2.92717 12.9986 4.93142 16.4612 7.91222 18.9559C8.86795 19.7558 9.90448 20.4398 11 21C12.0955 20.4398 13.132 19.7558 14.0878 18.9559C17.0686 16.4612 19.0728 12.9986 19.7485 9.17647C20.126 7.04136 20.0754 4.87029 19.618 2.7838C19.2637 2.80662 18.9078 2.81813 18.5509 2.81813C15.9074 2.81813 13.3212 2.18698 11 1Z" stroke="currentColor"/></g></g></symbol><symbol id="icon-f-path" viewBox="0 0 22 22"><g fill="none"><g id="icon/path" clip-path="url(#clip0_131_2748)"><path id="icon/path_2" d="M18.1429 8.76743H12.7857C11.1091 8.76743 9.75 10.1366 9.75 11.8256C9.75 13.5145 11.1091 14.8837 12.7857 14.8837H15.1071C16.7837 14.8837 18.1429 16.2529 18.1429 17.9419C18.1429 19.6308 16.7837 21 15.1071 21H3.85714M6.71428 15.9302C6.71428 14.3406 5.4351 13.0519 3.85714 13.0519C2.27919 13.0519 1 14.3406 1 15.9302V16.0384C1 16.6695 1.1985 17.2845 1.56701 17.7949L3.8515 20.9593C3.85429 20.9632 3.86 20.9632 3.86279 20.9593L6.14727 17.7949C6.51578 17.2845 6.71428 16.6695 6.71428 16.0384V15.9302ZM4.40947 14.7454L4.42662 14.7535C4.77242 14.9183 5.02453 15.2332 5.11112 15.6086C5.19868 15.9881 5.10458 16.3904 4.86077 16.6929C4.61964 16.9921 4.25485 17.1691 3.87232 17.1691H3.84197C3.45944 17.1691 3.09464 16.9921 2.85352 16.6929C2.60971 16.3904 2.51561 15.9881 2.60316 15.6086C2.68975 15.2332 2.94186 14.9183 3.28767 14.7535L3.30482 14.7454C3.65446 14.5788 4.05982 14.5788 4.40947 14.7454ZM21 3.89849C21 2.30887 19.7208 1 18.1429 1C16.5649 1 15.2857 2.30887 15.2857 3.89849C15.2857 4.52339 15.4857 5.1384 15.8561 5.63972L18.1372 8.72766C18.14 8.73147 18.1457 8.73147 18.1485 8.72766L20.4297 5.63972C20.8 5.1384 21 4.52339 21 3.89849ZM18.6875 2.65136L18.7262 2.66941C19.0631 2.82627 19.3099 3.13018 19.3957 3.4939C19.4838 3.86694 19.3925 4.25998 19.1492 4.55491L19.137 4.56971C18.8999 4.85725 18.548 5.02359 18.1769 5.02359H18.1088C17.7377 5.02359 17.3858 4.85725 17.1487 4.56971L17.1365 4.55491C16.8932 4.25998 16.8019 3.86694 16.89 3.4939C16.9758 3.13018 17.2226 2.82627 17.5595 2.66941L17.5983 2.65136C17.9438 2.49048 18.342 2.49048 18.6875 2.65136Z" stroke="currentColor" stroke-linecap="round"/></g></g></symbol><symbol id="icon-link-arrow" viewBox="0 0 9 14"><g fill="none"><path id="arrow/small/right" d="M1 13L7 7L0.999999 1" stroke="currentColor" stroke-width="2"/></g></symbol><symbol id="icon-logo-dark" viewBox="0 0 308 42"><g fill="none"><path d="M87.5618 3.3125H2.49476C1.10424 3.3125 0 4.41674 0 5.76636C0 7.11598 1.10424 8.26111 2.49476 8.26111H17.2588C18.6084 8.26111 19.7536 9.36535 19.7536 10.7559C19.7536 12.1464 18.6493 13.2506 17.2588 13.2506H12.8419C11.4922 13.2506 10.3471 14.3549 10.3471 15.7454C10.3471 17.095 11.4513 18.2401 12.8419 18.2401H27.6059C28.9555 18.2401 30.1006 19.3444 30.1006 20.7349C30.1006 22.0845 28.9964 23.2296 27.6059 23.2296H23.189C21.8393 23.2296 20.6942 24.3339 20.6942 25.7244C20.6942 27.074 21.7984 28.2192 23.189 28.2192H38.1166C39.4662 28.2192 40.6113 29.3234 40.6113 30.7139C40.6113 32.0635 41.7156 33.2087 43.1061 33.2087H57.4612C57.4612 37.5847 61.0192 41.1428 65.3953 41.1428C69.7713 41.1428 73.3294 37.5847 73.3294 33.2087H87.6027C88.9523 33.2087 90.0975 32.1044 90.0975 30.7139V5.76636C90.0566 4.41674 88.9523 3.3125 87.5618 3.3125ZM65.3544 37.0939C63.105 37.0939 61.2646 35.2535 61.2646 33.0042C61.2646 30.7548 63.105 28.9144 65.3544 28.9144C67.6038 28.9144 69.4442 30.7548 69.4442 33.0042C69.4442 35.2535 67.6038 37.0939 65.3544 37.0939Z" fill="#5b5b5b"/></g></symbol><symbol id="icon-logo" viewBox="0 0 308 42"><g fill="none"><path d="M87.5618 3.3125H2.49476C1.10424 3.3125 0 4.41674 0 5.76636C0 7.11598 1.10424 8.26111 2.49476 8.26111H17.2588C18.6084 8.26111 19.7536 9.36535 19.7536 10.7559C19.7536 12.1464 18.6493 13.2506 17.2588 13.2506H12.8419C11.4922 13.2506 10.3471 14.3549 10.3471 15.7454C10.3471 17.095 11.4513 18.2401 12.8419 18.2401H27.6059C28.9555 18.2401 30.1006 19.3444 30.1006 20.7349C30.1006 22.0845 28.9964 23.2296 27.6059 23.2296H23.189C21.8393 23.2296 20.6942 24.3339 20.6942 25.7244C20.6942 27.074 21.7984 28.2192 23.189 28.2192H38.1166C39.4662 28.2192 40.6113 29.3234 40.6113 30.7139C40.6113 32.0635 41.7156 33.2087 43.1061 33.2087H57.4612C57.4612 37.5847 61.0192 41.1428 65.3953 41.1428C69.7713 41.1428 73.3294 37.5847 73.3294 33.2087H87.6027C88.9523 33.2087 90.0975 32.1044 90.0975 30.7139V5.76636C90.0566 4.41674 88.9523 3.3125 87.5618 3.3125ZM65.3544 37.0939C63.105 37.0939 61.2646 35.2535 61.2646 33.0042C61.2646 30.7548 63.105 28.9144 65.3544 28.9144C67.6038 28.9144 69.4442 30.7548 69.4442 33.0042C69.4442 35.2535 67.6038 37.0939 65.3544 37.0939Z" fill="#ffffff"/></g></symbol><symbol id="icon-menu-black" viewBox="0 0 30 23"><g fill="none"><rect x="0.125" y="0.5" width="29" height="4" rx="2" fill="#878787"/><rect x="0.125" y="9.5" width="29" height="4" rx="2" fill="#878787"/><rect x="0.125" y="18.5" width="29" height="4" rx="2" fill="#878787"/></g></symbol><symbol id="icon-menu" viewBox="0 0 26 26"><g fill="none"><g id="icon/menu"><g id="icon/menu_2"><path d="M0 3.54541H26V5.71534H0V3.54541Z" fill="currentColor"/><path d="M0 20.2846H26V22.4545H0V20.2846Z" fill="currentColor"/><path d="M0 11.915H16.64V14.0849H0V11.915Z" fill="currentColor"/></g></g></g></symbol><symbol id="icon-minus" viewBox="0 0 20 2"><g fill="none"><path id="Vector 27" d="M0 1H10H20" stroke="#316DC2"/></g></symbol><symbol id="icon-nav-row-active" viewBox="0 0 11 7"><g fill="none"><path d="M10 1L5.5 5L1 1" stroke="#5B5B5B" stroke-width="2" stroke-linecap="round"/></g></symbol><symbol id="icon-nav-row" viewBox="0 0 7 12"><g fill="none"><path d="M1 1.5L5 6L1 10.5" stroke="#5B5B5B" stroke-width="2" stroke-linecap="round"/></g></symbol><symbol id="icon-next-arrow" viewBox="0 0 18 34"><g fill="none"><path id="Vector 2.8" d="M1 1L17 17L1 33" stroke="currentColor"/></g></symbol><symbol id="icon-ok" viewBox="0 0 14 22"><g fill="none"><path d="M7 3.32798C8.32292 3.32798 9.39879 4.38262 9.39879 5.67944C9.39879 6.97235 8.32292 8.02699 7 8.02699C5.67708 8.02699 4.60121 6.97235 4.60121 5.67944C4.60121 4.38262 5.67708 3.32798 7 3.32798ZM7 11.355C10.1957 11.355 12.7938 8.8082 12.7938 5.67944C12.7938 2.54676 10.1957 0 7 0C3.80427 0 1.21023 2.54676 1.21023 5.67944C1.21023 8.8082 3.80427 11.355 7 11.355ZM9.343 15.9876C10.5225 15.722 11.6581 15.2649 12.7061 14.6204C13.499 14.1322 13.7381 13.1049 13.24 12.3276C12.738 11.5464 11.694 11.312 10.897 11.8042C8.52614 13.265 5.47386 13.265 3.09898 11.8042C2.30603 11.312 1.25805 11.5464 0.759964 12.3276C0.261876 13.1049 0.500958 14.1322 1.29391 14.6204C2.34189 15.2649 3.47753 15.722 4.657 15.9876L1.41744 19.1593C0.755978 19.8077 0.755978 20.8624 1.41744 21.5108C1.75215 21.835 2.1825 21.999 2.61683 21.999C3.05116 21.999 3.4855 21.835 3.82021 21.5108L7 18.3937L10.1838 21.5108C10.8452 22.1631 11.9171 22.1631 12.5826 21.5108C13.244 20.8624 13.244 19.8077 12.5826 19.1593L9.343 15.9876Z" fill="currentColor"/></g></symbol><symbol id="icon-order-done" viewBox="0 0 290 102"><g fill="none"><path d="M292 98V100H290H196.196C189.79 100 183.796 96.0056 183.724 90.0761C183.708 88.7068 182.954 87.3055 181.438 86.18C179.924 85.0555 177.746 84.3004 175.253 84.3004H115.158C111.884 84.3004 108.837 83.3034 106.563 81.6035C104.291 79.9047 102.687 77.4028 102.687 74.4703C102.687 71.5379 104.291 69.036 106.563 67.3372C108.837 65.6373 111.884 64.6403 115.158 64.6403H160.88C163.37 64.6403 165.559 63.8775 167.08 62.74C168.603 61.6014 169.352 60.1883 169.352 58.8103C169.352 57.4322 168.603 56.0191 167.08 54.8806C165.559 53.743 163.37 52.9802 160.88 52.9802H58.4208C55.1461 52.9802 52.0989 51.9832 49.8255 50.2834C47.5535 48.5845 45.9492 46.0826 45.9492 43.1502C45.9492 40.2177 47.5535 37.7159 49.8255 36.017C52.0989 34.3171 55.1461 33.3201 58.4208 33.3201H86.7197C89.1841 33.3201 91.399 32.6108 92.9785 31.5261C94.5619 30.4388 95.3746 29.0857 95.4595 27.7638C95.5433 26.3063 94.8342 24.8385 93.3262 23.6561C91.8106 22.4678 89.5733 21.6601 86.9842 21.6601H14.4716C11.1969 21.6601 8.14975 20.6631 5.8764 18.9632C3.6044 17.2644 2 14.7625 2 11.83C2 8.89759 3.6044 6.39571 5.8764 4.69685C8.14975 2.99699 11.1969 2 14.4716 2H290H292V4V98Z" stroke="#00FF76" stroke-width="4" stroke-miterlimit="10"/></g></symbol><symbol id="icon-pin" viewBox="0 0 16 22"><g fill="none"><path fill-rule="evenodd" clip-rule="evenodd" d="M4.03617 1.03045C6.53316 -0.365998 9.60237 -0.34159 12.0759 1.09438C14.5252 2.55961 16.0138 5.17459 15.9999 7.98759C15.9429 10.7821 14.3467 13.409 12.3515 15.4397C11.1999 16.617 9.91162 17.6581 8.51301 18.5416C8.36897 18.6218 8.21119 18.6755 8.04746 18.7C7.88987 18.6935 7.73641 18.6487 7.60091 18.5696C5.46566 17.242 3.5924 15.5474 2.07125 13.5674C0.798392 11.9145 0.0752412 9.91761 1.3277e-06 7.84786C-0.00165107 5.02947 1.53917 2.4269 4.03617 1.03045ZM5.47908 9.01426C5.8991 10.0109 6.89053 10.661 7.99045 10.661C8.71103 10.666 9.4037 10.3882 9.91413 9.88952C10.4246 9.39084 10.7103 8.7127 10.7078 8.00622C10.7116 6.92784 10.052 5.95355 9.03693 5.53825C8.02184 5.12296 6.85152 5.34858 6.0724 6.10978C5.29328 6.87098 5.05905 8.0176 5.47908 9.01426Z" fill="#316DC2"/><path d="M13.7144 20.9C13.7144 21.5075 11.156 22 8.00005 22C4.84411 22 2.28573 21.5075 2.28573 20.9C2.28573 20.2925 4.84411 19.8 8.00005 19.8C11.156 19.8 13.7144 20.2925 13.7144 20.9Z" fill="#316DC2"/></g></symbol><symbol id="icon-plus" viewBox="0 0 20 20"><g fill="none"><path id="Vector 27" d="M10 0V10M10 10V20M10 10H0M10 10H20" stroke="#316DC2"/></g></symbol><symbol id="icon-popular" viewBox="0 0 28 39"><g fill="none"><path fill-rule="evenodd" clip-rule="evenodd" d="M28 11.6635C28 10.5674 27.101 9.67248 25.9999 9.67248C24.8988 9.67248 23.9998 10.5674 23.9998 11.6635L23.9998 22.2233C23.9998 23.3193 23.1007 24.2143 21.9997 24.2143C20.8986 24.2143 19.9996 23.3193 19.9996 22.2233L19.9996 10.3474C19.9996 9.25132 19.1005 8.35636 17.9994 8.35636C16.8984 8.35636 15.9993 9.25132 15.9993 10.3474V13.8267C15.9993 14.9027 15.171 15.8177 14.1002 15.868C12.9487 15.9183 11.9991 15.0133 11.9991 13.877L12.0007 1.99104C12.0007 0.894962 11.1016 -4.81295e-08 10.0006 0C8.89948 4.81296e-08 8.00044 0.894962 8.00044 1.99104V27.1473C8.00044 28.2836 7.05089 29.1886 5.89931 29.1383C4.82855 29.0881 4.00022 28.173 4.00022 27.097L4.00022 10.3474C4.00022 9.25132 3.10118 8.35635 2.00011 8.35635C0.89904 8.35635 0 9.25132 0 10.3474V25C0 32.732 6.26801 39 14 39C21.732 39 28 32.7343 28 25.0023V11.6635ZM15.9659 4.32967C15.9659 3.23359 16.865 2.33863 17.9661 2.33863C19.0671 2.33863 19.9662 3.23359 19.9662 4.32967C19.9662 5.42575 19.0671 6.32067 17.9661 6.32067C16.865 6.32067 15.9659 5.42575 15.9659 4.32967Z" fill="url(#paint0_linear_297_18117)"/></g></symbol><symbol id="icon-radio-checked" viewBox="0 0 10 10"><g fill="none"><circle cx="5" cy="5" r="5" fill="#23D679"/></g></symbol><symbol id="icon-radio-focus" viewBox="0 0 10 10"><g fill="none"><circle cx="5" cy="5" r="5" fill="#B7B7B7"/></g></symbol><symbol id="icon-reddit" viewBox="0 0 20 22"><g fill="none"><path d="M11.9453 0.5C11.304 0.5 10.7021 0.84161 10.3161 1.33425C9.93009 1.82688 9.71732 2.4274 9.56231 3.06027C9.31611 4.07791 9.24012 5.20702 9.22188 6.22466C7.41944 6.35051 5.78722 6.91147 4.43159 7.77808C3.88143 7.29264 3.21882 7.02295 2.58356 7.03014C1.86015 7.03733 1.17322 7.36455 0.662576 8.03699C-0.313112 9.32072 -0.200649 11.4207 0.930054 12.6685C0.860145 13.0533 0.808473 13.4488 0.808473 13.8479C0.808473 18.0767 4.92399 21.5 10 21.5C15.076 21.5 19.1915 18.0731 19.1915 13.8479C19.1915 13.4488 19.1399 13.0533 19.0699 12.6685C20.2006 11.4207 20.3131 9.32072 19.3374 8.03699C18.8268 7.36455 18.1399 7.03733 17.4164 7.03014C16.7812 7.02295 16.1186 7.29264 15.5684 7.77808C14.2189 6.91507 12.5958 6.35411 10.8024 6.22466C10.8268 5.28613 10.8906 4.31164 11.0699 3.57808C11.1824 3.11781 11.3161 2.78339 11.459 2.6C11.6018 2.41661 11.7052 2.3411 11.9453 2.3411C12.4651 2.3411 12.5319 2.51729 12.845 2.94521C13.0031 3.16096 13.1854 3.43065 13.4772 3.69315C13.769 3.95565 14.2006 4.18219 14.6687 4.18219V2.3411C14.538 2.3411 14.5137 2.3375 14.4256 2.25479C14.3374 2.17209 14.2158 1.98151 14.0365 1.73699C13.6778 1.24435 12.9818 0.5 11.9453 0.5ZM17.0031 0.672603C15.7933 0.672603 14.8146 1.83048 14.8146 3.26164C14.8146 4.69281 15.7933 5.85069 17.0031 5.85069C18.2128 5.85069 19.1915 4.69281 19.1915 3.26164C19.1915 1.83048 18.2128 0.672603 17.0031 0.672603ZM17.0031 1.59315C17.7812 1.59315 18.4134 2.3411 18.4134 3.26164C18.4134 4.18219 17.7812 4.93014 17.0031 4.93014C16.225 4.93014 15.5927 4.18219 15.5927 3.26164C15.5927 2.3411 16.225 1.59315 17.0031 1.59315ZM10 7.66301C14.307 7.66301 17.9514 10.5002 17.9514 13.8479C17.9514 17.1993 14.307 20.0329 10 20.0329C5.69299 20.0329 2.0486 17.1993 2.0486 13.8479C2.0486 10.5002 5.69299 7.66301 10 7.66301ZM2.60787 8.49726C2.82368 8.50086 3.0486 8.55839 3.26441 8.66986C2.48325 9.37106 1.86319 10.1765 1.44069 11.0863C1.1489 10.3743 1.22793 9.48613 1.58659 9.01507C1.84799 8.66986 2.20969 8.49366 2.60787 8.49726ZM17.3921 8.49726C17.7903 8.49366 18.152 8.66986 18.4134 9.01507C18.7721 9.48613 18.8511 10.3743 18.5593 11.0863C18.1368 10.1765 17.5167 9.37106 16.7356 8.66986C16.9514 8.55839 17.1763 8.50086 17.3921 8.49726ZM6.88753 10.7986C6.10941 10.7986 5.47719 11.5466 5.47719 12.4671C5.47719 13.3877 6.10941 14.1356 6.88753 14.1356C7.66564 14.1356 8.29786 13.3877 8.29786 12.4671C8.29786 11.5466 7.66564 10.7986 6.88753 10.7986ZM13.1125 10.7986C12.3344 10.7986 11.7021 11.5466 11.7021 12.4671C11.7021 13.3877 12.3344 14.1356 13.1125 14.1356C13.8906 14.1356 14.5228 13.3877 14.5228 12.4671C14.5228 11.5466 13.8906 10.7986 13.1125 10.7986ZM6.13372 16.4658C6.62917 17.6776 8.16109 18.8534 10 18.8534C11.8389 18.8534 13.3952 17.6776 13.8906 16.4658C12.9909 17.1526 11.5714 17.6164 10 17.6164C8.42857 17.6164 7.03342 17.1526 6.13372 16.4658Z" fill="currentColor"/></g></symbol><symbol id="icon-rouble" viewBox="0 0 30 42"><g fill="none"><path fill-rule="evenodd" clip-rule="evenodd" d="M0 17H6V23H0V17Z" fill="#10currentColor54"/><path fill-rule="evenodd" clip-rule="evenodd" d="M3.65854 28.3214V18H9.65854V28.3214H21V34.3214H9.65854V42H3.65854V34.3214H0V28.3214H3.65854Z" fill="currentColor"/><path fill-rule="evenodd" clip-rule="evenodd" d="M18.5 6H10V17H18.5C21.5376 17 24 14.5376 24 11.5C24 8.46243 21.5376 6 18.5 6ZM4 0V23H18.5C24.8513 23 30 17.8513 30 11.5C30 5.14873 24.8513 0 18.5 0H4Z" fill="currentColor"/></g></symbol><symbol id="icon-row" viewBox="0 0 6 12"><g fill="none"><path d="M1 3.5L4 7L1 10.5" stroke="#878787" stroke-width="2" stroke-linecap="round"/></g></symbol><symbol id="icon-video-play-mobile" viewBox="0 0 39 41"><g fill="none"><ellipse cx="19.5" cy="20.6416" rx="19.5" ry="20" fill="white" fill-opacity="0.5"/><path d="M26.3322 19.452C27.572 20.2372 27.572 22.046 26.3321 22.8312L17.0701 28.6972C15.7385 29.5406 14 28.5838 14 27.0076L14 15.2756C14 13.6994 15.7385 12.7426 17.0701 13.586L26.3322 19.452Z" fill="#212121"/></g></symbol><symbol id="icon-video-play" viewBox="0 0 63 63"><g fill="none"><ellipse cx="31.5" cy="31.1538" rx="31.5" ry="31.1538" fill="white" fill-opacity="0.9"/><path d="M43.9757 29.6058C45.3155 30.3744 45.3155 32.307 43.9757 33.0755L24.9951 43.9632C23.6618 44.7281 22 43.7655 22 42.2284L22 20.4529C22 18.9158 23.6618 17.9533 24.9952 18.7181L43.9757 29.6058Z" fill="#212121"/></g></symbol><symbol id="icon-vk" viewBox="0 0 22 12"><g fill="none"><path d="M21.8039 10.7032C21.7448 10.6086 21.379 9.84878 19.6189 8.28709C17.7762 6.65178 18.0238 6.91732 20.2432 4.0897C21.5949 2.36763 22.1353 1.31598 21.9662 0.866405C21.8053 0.437859 20.8111 0.550911 20.8111 0.550911L17.5053 0.569315C17.5053 0.569315 17.2606 0.537766 17.0777 0.641616C16.9003 0.744151 16.7862 0.980772 16.7862 0.980772C16.7862 0.980772 16.2623 2.31373 15.5637 3.44688C14.091 5.83806 13.501 5.96426 13.2604 5.81572C12.7007 5.46999 12.841 4.42491 12.841 3.6835C12.841 1.36594 13.2082 0.399737 12.1246 0.149971C11.7643 0.0671538 11.5003 0.0119424 10.5803 0.00274048C9.4005 -0.00909055 8.4008 0.00668415 7.83563 0.27091C7.45885 0.447061 7.16871 0.840114 7.3461 0.862462C7.56474 0.890068 8.05977 0.989974 8.32242 1.33176C8.66207 1.77214 8.64969 2.76331 8.64969 2.76331C8.64969 2.76331 8.84496 5.49102 8.19453 5.83018C7.74763 6.06285 7.13571 5.5883 5.82248 3.41796C5.15006 2.30716 4.64127 1.07805 4.64127 1.07805C4.64127 1.07805 4.54364 0.849316 4.369 0.727062C4.15724 0.578517 3.86022 0.531193 3.86022 0.531193L0.716735 0.549597C0.716735 0.549597 0.245075 0.562743 0.0718122 0.758612C-0.0821991 0.933448 0.0594363 1.29364 0.0594363 1.29364C0.0594363 1.29364 2.52087 6.79769 5.30682 9.57272C7.86313 12.1164 10.7646 11.9494 10.7646 11.9494H12.0792C12.0792 11.9494 12.4766 11.9074 12.6787 11.6984C12.8658 11.5064 12.8589 11.1463 12.8589 11.1463C12.8589 11.1463 12.8327 9.45967 13.6523 9.21122C14.4595 8.96671 15.4963 10.8413 16.595 11.563C17.4256 12.1085 18.0568 11.9889 18.0568 11.9889L20.9953 11.9494C20.9953 11.9494 22.5327 11.8587 21.8039 10.7032Z" fill="currentColor"/></g></symbol><symbol id="logo-black" viewBox="0 0 452 61"><g fill="none"><path d="M128.5 4.86182H3.66113C1.6205 4.86182 0 6.48232 0 8.46293C0 10.4435 1.6205 12.1241 3.66113 12.1241H25.3278C27.3084 12.1241 28.989 13.7446 28.989 15.7852C28.989 17.8258 27.3685 19.4463 25.3278 19.4463H18.8458C16.8652 19.4463 15.1847 21.0668 15.1847 23.1075C15.1847 25.0881 16.8052 26.7686 18.8458 26.7686H40.5125C42.4931 26.7686 44.1737 28.3891 44.1737 30.4297C44.1737 32.4103 42.5532 34.0909 40.5125 34.0909H34.0305C32.0499 34.0909 30.3694 35.7114 30.3694 37.752C30.3694 39.7326 31.9899 41.4131 34.0305 41.4131H55.9373C57.9179 41.4131 59.5984 43.0336 59.5984 45.0743C59.5984 47.0549 61.2189 48.7354 63.2596 48.7354H84.3261C84.3261 55.1574 89.5477 60.379 95.9697 60.379C102.392 60.379 107.613 55.1574 107.613 48.7354H128.56C130.54 48.7354 132.221 47.1149 132.221 45.0743V8.46293C132.161 6.48232 130.54 4.86182 128.5 4.86182ZM95.9097 54.4372C92.6086 54.4372 89.9078 51.7363 89.9078 48.4353C89.9078 45.1343 92.6086 42.4334 95.9097 42.4334C99.2107 42.4334 101.912 45.1343 101.912 48.4353C101.912 51.7363 99.2107 54.4372 95.9097 54.4372Z" fill="#00FF76"/></g></symbol><symbol id="subtract" viewBox="0 0 12 17"><g fill="none"><path fill-rule="evenodd" clip-rule="evenodd" d="M4.41938 15.5746C2.37587 12.8132 0 9.27551 0 6.31579C0 2.84211 2.52632 0 6 0C9.15789 0 12 2.52632 12 6.63158C12 9.35058 9.67683 12.8435 7.60838 15.5959C6.81288 16.6544 5.20702 16.639 4.41938 15.5746ZM5.99959 8.21054C7.22043 8.21054 8.21012 7.22086 8.21012 6.00002C8.21012 4.77918 7.22043 3.78949 5.99959 3.78949C4.77875 3.78949 3.78906 4.77918 3.78906 6.00002C3.78906 7.22086 4.77875 8.21054 5.99959 8.21054Z" fill="#878787"/></g></symbol></svg>