<svg xmlns="http://www.w3.org/2000/svg" xmlns:xlink="http://www.w3.org/1999/xlink"><symbol id="icon-arrow" viewBox="0 0 14 9"><g fill="none"><path id="Arrow/left" d="M0.646446 4.85355C0.451184 4.65829 0.451184 4.34171 0.646446 4.14645L3.82843 0.964466C4.02369 0.769204 4.34027 0.769204 4.53553 0.964466C4.7308 1.15973 4.7308 1.47631 4.53553 1.67157L1.70711 4.5L4.53553 7.32843C4.7308 7.52369 4.7308 7.84027 4.53553 8.03553C4.34027 8.2308 4.02369 8.2308 3.82843 8.03553L0.646446 4.85355ZM14 5H1V4H14V5Z" fill="currentColor"/></g></symbol><symbol id="icon-close" viewBox="0 0 20 20"><g fill="none"><path d="M.293 18.291a1 1 0 101.414 1.414L10 11.413l8.292 8.292a1 1 0 101.414-1.414l-8.292-8.292 8.292-8.292A1 1 0 1018.291.293L9.999 8.585 1.707.293A1 1 0 10.293 1.707L8.585 10 .293 18.291z" fill="currentColor"/></g></symbol><symbol id="icon-logo-dark" viewBox="0 0 113 43"><g fill="none"><path d="M109.82 0H3.12892C1.38493 0 0 1.25514 0 2.78919C0 4.32324 1.38493 5.62486 3.12892 5.62486H21.6459C23.3386 5.62486 24.7749 6.88 24.7749 8.46058C24.7749 10.0411 23.3899 11.2962 21.6459 11.2962H16.1063C14.4135 11.2962 12.9773 12.5514 12.9773 14.1319C12.9773 15.6659 14.3622 16.9675 16.1063 16.9675H34.6232C36.3159 16.9675 37.7521 18.2227 37.7521 19.8033C37.7521 21.3373 36.3672 22.6389 34.6232 22.6389H29.0836C27.3908 22.6389 25.9546 23.8941 25.9546 25.4746C25.9546 27.0086 27.3395 28.3103 29.0836 28.3103H47.8057C49.4984 28.3103 50.9346 29.5654 50.9346 31.1459C50.9346 32.68 52.3196 33.9817 54.0635 33.9817H72.0677C72.0677 38.9557 76.5301 43 82.0186 43C87.5069 43 91.9695 38.9557 91.9695 33.9817H109.871C111.564 33.9817 113 32.7265 113 31.1459V2.78919C112.949 1.25514 111.564 0 109.82 0ZM81.9673 38.3978C79.1461 38.3978 76.8379 36.3059 76.8379 33.7492C76.8379 31.1924 79.1461 29.1005 81.9673 29.1005C84.7885 29.1005 87.0967 31.1924 87.0967 33.7492C87.0967 36.3059 84.7885 38.3978 81.9673 38.3978Z" fill="currentColor"/></g></symbol><symbol id="icon-mail" viewBox="0 0 48 48"><path fill="none" stroke="currentColor" stroke-linecap="round" stroke-linejoin="round" d="M6.47,10.71a2,2,0,0,0-2,2h0V35.32a2,2,0,0,0,2,2H41.53a2,2,0,0,0,2-2h0V12.68a2,2,0,0,0-2-2H6.47Zm33.21,3.82L24,26.07,8.32,14.53"/></symbol><symbol id="icon-menu" viewBox="0 0 26 26"><g fill="none"><g id="icon/menu"><g id="icon/menu_2"><path d="M0 3.54541H26V5.71534H0V3.54541Z" fill="currentColor"/><path d="M0 20.2846H26V22.4545H0V20.2846Z" fill="currentColor"/><path d="M0 11.915H16.64V14.0849H0V11.915Z" fill="currentColor"/></g></g></g></symbol><symbol id="icon-phone" viewBox="0 0 24 24"><g fill="none"><path d="M16.1007 13.359L15.5719 12.8272H15.5719L16.1007 13.359ZM16.5562 12.9062L17.085 13.438H17.085L16.5562 12.9062ZM18.9728 12.5894L18.6146 13.2483L18.9728 12.5894ZM20.8833 13.628L20.5251 14.2869L20.8833 13.628ZM21.4217 16.883L21.9505 17.4148L21.4217 16.883ZM20.0011 18.2954L19.4723 17.7636L20.0011 18.2954ZM18.6763 18.9651L18.7459 19.7119H18.7459L18.6763 18.9651ZM8.81536 14.7266L9.34418 14.1947L8.81536 14.7266ZM4.00289 5.74561L3.2541 5.78816L3.2541 5.78816L4.00289 5.74561ZM10.4775 7.19738L11.0063 7.72922H11.0063L10.4775 7.19738ZM10.6342 4.54348L11.2346 4.09401L10.6342 4.54348ZM9.37326 2.85908L8.77286 3.30855V3.30855L9.37326 2.85908ZM6.26145 2.57483L6.79027 3.10667H6.79027L6.26145 2.57483ZM4.69185 4.13552L4.16303 3.60368H4.16303L4.69185 4.13552ZM12.0631 11.4972L12.5919 10.9654L12.0631 11.4972ZM16.6295 13.8909L17.085 13.438L16.0273 12.3743L15.5719 12.8272L16.6295 13.8909ZM18.6146 13.2483L20.5251 14.2869L21.2415 12.9691L19.331 11.9305L18.6146 13.2483ZM20.8929 16.3511L19.4723 17.7636L20.5299 18.8273L21.9505 17.4148L20.8929 16.3511ZM18.6067 18.2184C17.1568 18.3535 13.4056 18.2331 9.34418 14.1947L8.28654 15.2584C12.7186 19.6653 16.9369 19.8805 18.7459 19.7119L18.6067 18.2184ZM9.34418 14.1947C5.4728 10.3453 4.83151 7.10765 4.75168 5.70305L3.2541 5.78816C3.35456 7.55599 4.14863 11.144 8.28654 15.2584L9.34418 14.1947ZM10.7195 8.01441L11.0063 7.72922L9.9487 6.66555L9.66189 6.95073L10.7195 8.01441ZM11.2346 4.09401L9.97365 2.40961L8.77286 3.30855L10.0338 4.99296L11.2346 4.09401ZM5.73263 2.04299L4.16303 3.60368L5.22067 4.66736L6.79027 3.10667L5.73263 2.04299ZM10.1907 7.48257C9.66189 6.95073 9.66117 6.95144 9.66045 6.95216C9.66021 6.9524 9.65949 6.95313 9.659 6.95362C9.65802 6.95461 9.65702 6.95561 9.65601 6.95664C9.65398 6.95871 9.65188 6.96086 9.64972 6.9631C9.64539 6.96759 9.64081 6.97245 9.63599 6.97769C9.62634 6.98816 9.61575 7.00014 9.60441 7.01367C9.58174 7.04072 9.55605 7.07403 9.52905 7.11388C9.47492 7.19377 9.41594 7.2994 9.36589 7.43224C9.26376 7.70329 9.20901 8.0606 9.27765 8.50305C9.41189 9.36833 10.0078 10.5113 11.5343 12.0291L12.5919 10.9654C11.1634 9.54499 10.8231 8.68059 10.7599 8.27309C10.7298 8.07916 10.761 7.98371 10.7696 7.96111C10.7748 7.94713 10.7773 7.9457 10.7709 7.95525C10.7677 7.95992 10.7624 7.96723 10.7541 7.97708C10.75 7.98201 10.7451 7.98759 10.7394 7.99381C10.7365 7.99692 10.7335 8.00019 10.7301 8.00362C10.7285 8.00534 10.7268 8.00709 10.725 8.00889C10.7241 8.00979 10.7232 8.0107 10.7223 8.01162C10.7219 8.01208 10.7212 8.01278 10.7209 8.01301C10.7202 8.01371 10.7195 8.01441 10.1907 7.48257ZM11.5343 12.0291C13.0613 13.5474 14.2096 14.1383 15.0763 14.2713C15.5192 14.3392 15.8763 14.285 16.1472 14.1841C16.28 14.1346 16.3858 14.0763 16.4658 14.0227C16.5058 13.9959 16.5392 13.9704 16.5663 13.9479C16.5799 13.9367 16.5919 13.9262 16.6024 13.9166C16.6077 13.9118 16.6126 13.9073 16.6171 13.903C16.6194 13.9008 16.6215 13.8987 16.6236 13.8967C16.6246 13.8957 16.6256 13.8947 16.6266 13.8937C16.6271 13.8932 16.6279 13.8925 16.6281 13.8923C16.6288 13.8916 16.6295 13.8909 16.1007 13.359C15.5719 12.8272 15.5726 12.8265 15.5733 12.8258C15.5735 12.8256 15.5742 12.8249 15.5747 12.8244C15.5756 12.8235 15.5765 12.8226 15.5774 12.8217C15.5793 12.82 15.581 12.8183 15.5827 12.8166C15.5862 12.8133 15.5895 12.8103 15.5926 12.8074C15.5988 12.8018 15.6044 12.7969 15.6094 12.7929C15.6192 12.7847 15.6265 12.7795 15.631 12.7764C15.6403 12.7702 15.6384 12.773 15.6236 12.7785C15.5991 12.7876 15.501 12.8189 15.3038 12.7886C14.8905 12.7253 14.02 12.3853 12.5919 10.9654L11.5343 12.0291ZM9.97365 2.40961C8.95434 1.04802 6.94996 0.83257 5.73263 2.04299L6.79027 3.10667C7.32195 2.578 8.26623 2.63181 8.77286 3.30855L9.97365 2.40961ZM4.75168 5.70305C4.73201 5.35694 4.89075 4.9954 5.22067 4.66736L4.16303 3.60368C3.62571 4.13795 3.20329 4.89425 3.2541 5.78816L4.75168 5.70305ZM19.4723 17.7636C19.1975 18.0369 18.9029 18.1908 18.6067 18.2184L18.7459 19.7119C19.4805 19.6434 20.0824 19.2723 20.5299 18.8273L19.4723 17.7636ZM11.0063 7.72922C11.9908 6.7503 12.064 5.2019 11.2346 4.09401L10.0338 4.99295C10.4373 5.53193 10.3773 6.23938 9.9487 6.66555L11.0063 7.72922ZM20.5251 14.2869C21.3429 14.7315 21.4703 15.7769 20.8929 16.3511L21.9505 17.4148C23.2908 16.0821 22.8775 13.8584 21.2415 12.9691L20.5251 14.2869ZM17.085 13.438C17.469 13.0562 18.0871 12.9616 18.6146 13.2483L19.331 11.9305C18.2474 11.3414 16.9026 11.5041 16.0273 12.3743L17.085 13.438Z" fill="currentColor"/></g></symbol><symbol id="icon-pin" viewBox="0 0 16 22"><g fill="none"><path fill-rule="evenodd" clip-rule="evenodd" d="M4.03617 1.03045C6.53316 -0.365998 9.60237 -0.34159 12.0759 1.09438C14.5252 2.55961 16.0138 5.17459 15.9999 7.98759C15.9429 10.7821 14.3467 13.409 12.3515 15.4397C11.1999 16.617 9.91162 17.6581 8.51301 18.5416C8.36897 18.6218 8.21119 18.6755 8.04746 18.7C7.88987 18.6935 7.73641 18.6487 7.60091 18.5696C5.46566 17.242 3.5924 15.5474 2.07125 13.5674C0.798392 11.9145 0.0752412 9.91761 1.3277e-06 7.84786C-0.00165107 5.02947 1.53917 2.4269 4.03617 1.03045ZM5.47908 9.01426C5.8991 10.0109 6.89053 10.661 7.99045 10.661C8.71103 10.666 9.4037 10.3882 9.91413 9.88952C10.4246 9.39084 10.7103 8.7127 10.7078 8.00622C10.7116 6.92784 10.052 5.95355 9.03693 5.53825C8.02184 5.12296 6.85152 5.34858 6.0724 6.10978C5.29328 6.87098 5.05905 8.0176 5.47908 9.01426Z" fill="#316DC2"/><path d="M13.7144 20.9C13.7144 21.5075 11.156 22 8.00005 22C4.84411 22 2.28573 21.5075 2.28573 20.9C2.28573 20.2925 4.84411 19.8 8.00005 19.8C11.156 19.8 13.7144 20.2925 13.7144 20.9Z" fill="#316DC2"/></g></symbol><symbol id="icon-rouble" viewBox="0 0 30 42"><g fill="none"><path fill-rule="evenodd" clip-rule="evenodd" d="M0 17H6V23H0V17Z" fill="#10currentColor54"/><path fill-rule="evenodd" clip-rule="evenodd" d="M3.65854 28.3214V18H9.65854V28.3214H21V34.3214H9.65854V42H3.65854V34.3214H0V28.3214H3.65854Z" fill="currentColor"/><path fill-rule="evenodd" clip-rule="evenodd" d="M18.5 6H10V17H18.5C21.5376 17 24 14.5376 24 11.5C24 8.46243 21.5376 6 18.5 6ZM4 0V23H18.5C24.8513 23 30 17.8513 30 11.5C30 5.14873 24.8513 0 18.5 0H4Z" fill="currentColor"/></g></symbol><symbol id="icon-telegram" viewBox="0 0 24 24"><g fill="none"><path fill-rule="evenodd" clip-rule="evenodd" d="M21.997 12C21.997 17.5228 17.5198 22 11.997 22C6.47415 22 1.99699 17.5228 1.99699 12C1.99699 6.47715 6.47415 2 11.997 2C17.5198 2 21.997 6.47715 21.997 12ZM12.3553 9.38244C11.3827 9.787 9.43876 10.6243 6.52356 11.8944C6.05018 12.0827 5.8022 12.2669 5.77962 12.4469C5.74147 12.7513 6.12258 12.8711 6.64155 13.0343C6.71214 13.0565 6.78528 13.0795 6.86026 13.1038C7.37085 13.2698 8.05767 13.464 8.41472 13.4717C8.7386 13.4787 9.10009 13.3452 9.49918 13.0711C12.2229 11.2325 13.629 10.3032 13.7172 10.2831C13.7795 10.269 13.8658 10.2512 13.9243 10.3032C13.9828 10.3552 13.977 10.4536 13.9708 10.48C13.9331 10.641 12.4371 12.0318 11.6629 12.7515C11.4216 12.9759 11.2504 13.135 11.2154 13.1714C11.137 13.2528 11.0571 13.3298 10.9803 13.4038C10.506 13.8611 10.1502 14.204 11 14.764C11.4083 15.0331 11.7351 15.2556 12.0611 15.4776C12.4171 15.7201 12.7722 15.9619 13.2317 16.2631C13.3487 16.3398 13.4605 16.4195 13.5694 16.4971C13.9837 16.7925 14.3559 17.0579 14.8158 17.0155C15.083 16.991 15.359 16.7397 15.4992 15.9903C15.8305 14.2193 16.4817 10.382 16.6322 8.80081C16.6454 8.66228 16.6288 8.48498 16.6154 8.40715C16.6021 8.32932 16.5743 8.21842 16.4731 8.13633C16.3533 8.03911 16.1683 8.01861 16.0856 8.02C15.7095 8.0267 15.1324 8.22735 12.3553 9.38244Z" stroke="#000000" stroke-linejoin="round"/></g></symbol><symbol id="icon-viber" viewBox="0 0 52.511 52.511"><g fill="currentColor"><g><g><path d="M31.256,0H21.254C10.778,0,2.255,8.521,2.255,18.995v9.01c0,7.8,4.793,14.81,12,17.665v5.841
c0,0.396,0.233,0.754,0.595,0.914c0.13,0.058,0.268,0.086,0.405,0.086c0.243,0,0.484-0.089,0.671-0.259L21.725,47h9.531
c10.476,0,18.999-8.521,18.999-18.995v-9.01C50.255,8.521,41.732,0,31.256,0z M48.255,28.005C48.255,37.376,40.63,45,31.256,45
h-9.917c-0.248,0-0.487,0.092-0.671,0.259l-4.413,3.997v-4.279c0-0.424-0.267-0.802-0.667-0.942
C8.81,41.638,4.255,35.196,4.255,28.005v-9.01C4.255,9.624,11.881,2,21.254,2h10.002c9.374,0,16.999,7.624,16.999,16.995V28.005z"/><path d="M39.471,30.493l-6.146-3.992c-0.672-0.437-1.472-0.585-2.255-0.423c-0.784,0.165-1.458,0.628-1.895,1.303l-0.289,0.444
c-2.66-0.879-5.593-2.002-7.349-7.085l0.727-0.632h0c1.248-1.085,1.379-2.983,0.294-4.233l-4.808-5.531
c-0.362-0.417-0.994-0.46-1.411-0.099l-3.019,2.624c-2.648,2.302-1.411,5.707-1.004,6.826c0.018,0.05,0.04,0.098,0.066,0.145
c0.105,0.188,2.612,4.662,6.661,8.786c4.065,4.141,11.404,7.965,11.629,8.076c0.838,0.544,1.781,0.805,2.714,0.805
c1.638,0,3.244-0.803,4.202-2.275l2.178-3.354C40.066,31.413,39.934,30.794,39.471,30.493z M35.91,34.142
c-0.901,1.388-2.763,1.782-4.233,0.834c-0.073-0.038-7.364-3.835-11.207-7.75c-3.592-3.659-5.977-7.724-6.302-8.291
c-0.792-2.221-0.652-3.586,0.464-4.556l2.265-1.968l4.152,4.776c0.369,0.424,0.326,1.044-0.096,1.411l-1.227,1.066
c-0.299,0.26-0.417,0.671-0.3,1.049c2.092,6.798,6.16,8.133,9.13,9.108l0.433,0.143c0.433,0.146,0.907-0.021,1.155-0.403
l0.709-1.092c0.146-0.226,0.37-0.379,0.63-0.434c0.261-0.056,0.527-0.004,0.753,0.143l5.308,3.447L35.91,34.142z"/><path d="M28.538,16.247c-0.532-0.153-1.085,0.156-1.236,0.688c-0.151,0.531,0.157,1.084,0.688,1.235
c1.49,0.424,2.677,1.613,3.097,3.104c0.124,0.44,0.525,0.729,0.962,0.729c0.09,0,0.181-0.012,0.272-0.037
c0.531-0.15,0.841-0.702,0.691-1.234C32.405,18.578,30.69,16.859,28.538,16.247z"/><path d="M36.148,22.219c0.09,0,0.181-0.012,0.272-0.037c0.532-0.15,0.841-0.703,0.691-1.234c-1.18-4.183-4.509-7.519-8.689-8.709
c-0.531-0.153-1.084,0.158-1.235,0.689c-0.151,0.531,0.157,1.084,0.688,1.235c3.517,1,6.318,3.809,7.311,7.328
C35.311,21.931,35.711,22.219,36.148,22.219z"/><path d="M27.991,7.582c-0.532-0.153-1.085,0.156-1.236,0.689c-0.151,0.531,0.157,1.084,0.688,1.235
c5.959,1.695,10.706,6.453,12.388,12.416c0.124,0.44,0.525,0.729,0.962,0.729c0.09,0,0.181-0.012,0.272-0.037
c0.531-0.15,0.841-0.703,0.691-1.234C39.887,14.753,34.613,9.467,27.991,7.582z"/></g></g></g></symbol><symbol id="icon-whatsapp" viewBox="0 0 48 48"><path fill="none" stroke="currentColor" stroke-linecap="round" stroke-linejoin="round" d="M24,2.5A21.52,21.52,0,0,0,5.15,34.36L2.5,45.5l11.14-2.65A21.5,21.5,0,1,0,24,2.5ZM13.25,12.27h5.86a1,1,0,0,1,1,1,10.4,10.4,0,0,0,.66,3.91,1.93,1.93,0,0,1-.66,2.44l-2.05,2a18.6,18.6,0,0,0,3.52,4.79A18.6,18.6,0,0,0,26.35,30l2-2.05c1-1,1.46-1,2.44-.66a10.4,10.4,0,0,0,3.91.66,1.05,1.05,0,0,1,1,1v5.86a1.05,1.05,0,0,1-1,1,23.68,23.68,0,0,1-15.64-6.84,23.6,23.6,0,0,1-6.84-15.64A1.07,1.07,0,0,1,13.25,12.27Z"/></symbol></svg>